<svg xmlns="http://www.w3.org/2000/svg" viewBox="0 0 78.409 81.115"><path d="M53.001 2.24c1.651-.171 3.205 1.525 3.824 2.55 1.911 2.658 1.176 9.253 1.176 9.253l-2.792-.245s1.011-4.67-.796-7.91c-2.37-4.318-6.606-2.517-6.606-2.517M36.22 1.102c1.613-.168 3.131 1.49 3.736 2.49 1.867 2.599 1.182 8.926 1.182 8.926l-2.73-.237s.957-4.448-.807-7.614c-2.32-4.22-6.457-2.46-6.457-2.46M20.796.012c1.578-.165 3.063 1.457 3.654 2.438 1.825 2.539 1.123 8.779 1.123 8.779l-2.669-.231s.967-4.401-.759-7.498c-2.266-4.126-6.313-2.403-6.313-2.403"/><linearGradient id="a" x1="48.133" x2="78.878" y1="8.526" y2="96.03" gradientTransform="translate(-15.909 -7.521)" gradientUnits="userSpaceOnUse"><stop offset="0" stop-color="#999"/><stop offset=".246" stop-color="#FFF"/><stop offset=".268" stop-color="#FFF"/><stop offset="1" stop-color="#333"/></linearGradient><path fill="url(#a)" d="m59.815 80.527.01.01s5.79-3.526 6.467-4.02a3.09 3.09 0 0 0 1.25-2.498c0-1.123.834-51.18.89-54.783.053-3.601-1.723-5.067-3.363-5.274-3.066-.387-51.822-4.3-52.572-4.333-.75-.035-1.95-.047-2.506.078-.552.122-4.579 1.186-4.579 1.186z" style="fill:url(#a)"/><path fill="#fff" d="M5.084 68.007c.29.704.761 1.33 1.473 1.484 1.293.274 46.724 10.913 48.452 11.348 1.72.429 6.062.845 6.062-2.753 0-3.601 1.188-53.343 1.188-57.88 0-3.761-1.742-4.86-3.997-5.071-2.183-.205-42.566-3.655-51.142-4.36-2.484-.237-2.688.812-2.696 2.656z"/><path fill="#4d4d4d" d="M58.806 21.976c0-3.888-2.063-5.086-3.824-5.553-.818-.22-11.389-1.116-22.503-2.015-12.867-1.04-24.575-1.966-25.2-1.977-.625-.016-1.859.597-1.859.597.41-.12 47.167 63.552 46.568 64.063l1.23-.635c.388-.45 1.283-1.48 1.492-1.986z"/><linearGradient id="b" x1="17.926" x2="73.566" y1="23.215" y2="78.855" gradientTransform="translate(-15.909 -7.521)" gradientUnits="userSpaceOnUse"><stop offset=".235" stop-color="#F2F2F2"/><stop offset="1" stop-color="#999"/></linearGradient><path fill="url(#b)" d="m53.144 74.346 3.625-52.563c0-4.001-1.568-4.642-4.387-5.01L6.676 12.862c-2.11-.201-3.839 1.552-4.032 3.397l-2.62 45.05c-.157 1.726.391 5.635 3.441 6.342l45.161 10.015c-.002 0 4.1 1.097 4.518-3.32z" style="fill:url(#b)"/><path d="M48.002 21.254c.012 1.523-1.167 2.729-2.626 2.697-1.449-.033-2.626-1.283-2.634-2.792-.007-1.508 1.16-2.716 2.603-2.697 1.46.019 2.65 1.269 2.657 2.792z"/><linearGradient id="c" x1="64.185" x2="64.185" y1="28.29" y2="9.775" gradientTransform="translate(-15.909 -7.521)" gradientUnits="userSpaceOnUse"><stop offset="0"/><stop offset=".776" stop-color="#FFF"/><stop offset=".922" stop-color="#FFF"/><stop offset="1" stop-color="#4D4D4D"/></linearGradient><path fill="url(#c)" d="m43.641 20.62 3.061.135s-.829-6.321-.452-9.275c.381-2.957.878-5.301 3.753-7.62 2.075-1.62 3.442-1.62 3.442-1.62h-2.717s-.782.005-1.449.248c-1.186.456-4.154 1.9-5.404 5.558-1.544 4.5-.234 12.574-.234 12.574z" style="fill:url(#c)"/><path d="M31.334 19.68c.011 1.49-1.142 2.669-2.565 2.636-1.417-.032-2.565-1.254-2.574-2.727-.008-1.475 1.13-2.655 2.545-2.636 1.421.019 2.588 1.24 2.594 2.728z"/><linearGradient id="d" x1="47.511" x2="47.511" y1="26.729" y2="8.635" gradientTransform="translate(-15.909 -7.521)" gradientUnits="userSpaceOnUse"><stop offset="0"/><stop offset=".776" stop-color="#FFF"/><stop offset=".922" stop-color="#FFF"/><stop offset="1" stop-color="#4D4D4D"/></linearGradient><path fill="url(#d)" d="m27.073 19.062 2.992.132s-.81-6.178-.442-9.064c.371-2.888.858-5.181 3.668-7.446C35.318 1.1 36.653 1.1 36.653 1.1h-2.655s-.764.004-1.414.242c-1.16.445-4.062 1.855-5.282 5.43-1.507 4.4-.229 12.289-.229 12.289z" style="fill:url(#d)"/><path d="M16.02 18.178c.011 1.454-1.114 2.608-2.509 2.577-1.384-.03-2.507-1.225-2.516-2.668-.008-1.441 1.105-2.594 2.486-2.577 1.393.018 2.534 1.215 2.538 2.668z"/><linearGradient id="e" x1="32.19" x2="32.19" y1="25.235" y2="7.546" gradientTransform="translate(-15.909 -7.521)" gradientUnits="userSpaceOnUse"><stop offset="0"/><stop offset=".776" stop-color="#FFF"/><stop offset=".922" stop-color="#FFF"/><stop offset="1" stop-color="#4D4D4D"/></linearGradient><path fill="url(#e)" d="m11.855 17.572 2.924.128s-.79-6.04-.433-8.86c.364-2.825.84-5.066 3.586-7.281C19.913.013 21.22.01 21.22.01h-2.596s-.747.005-1.384.237c-1.133.435-3.97 1.815-5.164 5.309-1.47 4.303-.22 12.015-.22 12.015z" style="fill:url(#e)"/><path fill="#737373" d="M11.364 29.11v1.995l36.26 5.024.031-2.22zM10.848 37.708v1.994l36.261 5.955.03-2.217zM10.351 46.106V48.1l19.303 4.039.031-2.217z"/><linearGradient id="f" x1="66.45" x2="70.022" y1="56.271" y2="61.012" gradientUnits="userSpaceOnUse"><stop offset=".095" stop-color="#EBC26C"/><stop offset=".71" stop-color="#963"/><stop offset="1" stop-color="#2C1F0D"/></linearGradient><path fill="url(#f)" d="m84.072 33.347 3.996-.392 5.186 4.917 1.064 5.19-35.956 29.067-16.582 5.378 7.934-14.957z" style="fill:url(#f)" transform="translate(-15.909 -7.521)"/><path fill="#fae600" d="m39.638 64.604 2.797-.271 35.373-28.324-2.766.325-5.344-4.854-1.439-5.683-34.477 29.232.666 5.45z"/><path fill="#e7a900" d="M75.005 36.26 39.37 64.605l-4.795-3.926 35.123-29.326z"/><path fill="#994f00" d="M78.334 35.618 42.397 64.604l-3.03-.018 35.56-28.242z"/><path d="M29.826 66.57c-.749-.75-.997-1.962-1.026-2.108l-1.693 3.197-1.22 2.324 4.217-1.363 1.82-.602c.001 0-1.299-.65-2.098-1.448z"/><path fill="#e4ba67" d="m72.222 25.444 5.167 4.913.991 5.216-3.422.799-5.342-4.97-1.357-5.605z"/><path fill="#1d1d1d" d="M71.144 27.98c.935-.613 2.514.54 3.416 1.443 1.053 1.052 2.541 3.072 1.537 3.726-1.154.75-2.78-.413-3.725-1.316-.968-.923-2.37-3.111-1.228-3.853z"/></svg>